<mxfile host="Electron" modified="2023-05-29T17:15:07.430Z" agent="Mozilla/5.0 (Windows NT 10.0; Win64; x64) AppleWebKit/537.36 (KHTML, like Gecko) draw.io/21.2.8 Chrome/112.0.5615.165 Electron/24.2.0 Safari/537.36" etag="RQVOH5jj5ymURm5WcIkx" version="21.2.8" type="device">
  <diagram name="Page-1" id="qxgAQSEuLuRuzz_BVkm9">
    <mxGraphModel dx="1221" dy="765" grid="1" gridSize="10" guides="1" tooltips="1" connect="1" arrows="1" fold="1" page="1" pageScale="1" pageWidth="850" pageHeight="1100" math="0" shadow="0">
      <root>
        <mxCell id="0" />
        <mxCell id="1" parent="0" />
        <mxCell id="6aGvFdNPM7GCSCphw27Q-5" style="rounded=0;orthogonalLoop=1;jettySize=auto;html=1;shape=link;strokeWidth=30;" edge="1" parent="1" source="6aGvFdNPM7GCSCphw27Q-1" target="6aGvFdNPM7GCSCphw27Q-3">
          <mxGeometry relative="1" as="geometry" />
        </mxCell>
        <mxCell id="6aGvFdNPM7GCSCphw27Q-6" style="rounded=0;orthogonalLoop=1;jettySize=auto;html=1;endArrow=none;endFill=0;strokeWidth=15;" edge="1" parent="1" source="6aGvFdNPM7GCSCphw27Q-1" target="6aGvFdNPM7GCSCphw27Q-4">
          <mxGeometry relative="1" as="geometry">
            <mxPoint x="510" y="430" as="targetPoint" />
          </mxGeometry>
        </mxCell>
        <mxCell id="6aGvFdNPM7GCSCphw27Q-8" style="edgeStyle=orthogonalEdgeStyle;rounded=0;orthogonalLoop=1;jettySize=auto;html=1;curved=1;endArrow=none;endFill=0;strokeWidth=10;" edge="1" parent="1" source="6aGvFdNPM7GCSCphw27Q-1" target="6aGvFdNPM7GCSCphw27Q-3">
          <mxGeometry relative="1" as="geometry">
            <Array as="points">
              <mxPoint x="210" y="130" />
            </Array>
          </mxGeometry>
        </mxCell>
        <mxCell id="6aGvFdNPM7GCSCphw27Q-1" value="" style="ellipse;whiteSpace=wrap;html=1;aspect=fixed;strokeWidth=10;" vertex="1" parent="1">
          <mxGeometry x="160" y="320" width="320" height="320" as="geometry" />
        </mxCell>
        <mxCell id="6aGvFdNPM7GCSCphw27Q-2" value="" style="ellipse;whiteSpace=wrap;html=1;aspect=fixed;strokeWidth=20;" vertex="1" parent="1">
          <mxGeometry x="260" y="420" width="120" height="120" as="geometry" />
        </mxCell>
        <mxCell id="6aGvFdNPM7GCSCphw27Q-3" value="" style="ellipse;whiteSpace=wrap;html=1;aspect=fixed;strokeWidth=10;" vertex="1" parent="1">
          <mxGeometry x="440" y="40" width="240" height="240" as="geometry" />
        </mxCell>
        <mxCell id="6aGvFdNPM7GCSCphw27Q-7" style="rounded=0;orthogonalLoop=1;jettySize=auto;html=1;endArrow=none;endFill=0;strokeWidth=15;" edge="1" parent="1" source="6aGvFdNPM7GCSCphw27Q-4" target="6aGvFdNPM7GCSCphw27Q-3">
          <mxGeometry relative="1" as="geometry" />
        </mxCell>
        <mxCell id="6aGvFdNPM7GCSCphw27Q-4" value="" style="ellipse;whiteSpace=wrap;html=1;aspect=fixed;strokeWidth=10;" vertex="1" parent="1">
          <mxGeometry x="640" y="400" width="160" height="160" as="geometry" />
        </mxCell>
        <mxCell id="6aGvFdNPM7GCSCphw27Q-9" value="" style="rounded=0;whiteSpace=wrap;html=1;rotation=-15;strokeWidth=5;" vertex="1" parent="1">
          <mxGeometry x="310" y="80" width="70" height="60" as="geometry" />
        </mxCell>
        <mxCell id="6aGvFdNPM7GCSCphw27Q-13" value="" style="rounded=0;whiteSpace=wrap;html=1;rotation=-45;strokeWidth=5;" vertex="1" parent="1">
          <mxGeometry x="208" y="137" width="70" height="60" as="geometry" />
        </mxCell>
        <mxCell id="6aGvFdNPM7GCSCphw27Q-14" value="" style="rounded=0;whiteSpace=wrap;html=1;rotation=-75;strokeWidth=5;" vertex="1" parent="1">
          <mxGeometry x="150" y="240" width="70" height="60" as="geometry" />
        </mxCell>
      </root>
    </mxGraphModel>
  </diagram>
</mxfile>
